
        <svg xmlns="http://www.w3.org/2000/svg" xmlns:xlink="http://www.w3.org/1999/xlink" version="1.1" width="3352.9411764705883" height="541.2620959476355" viewBox="0 0 3352.9411764705883 541.2620959476355">
			
			<g transform="scale(17.647058823529413) translate(10, 10)">
				<defs id="SvgjsDefs1279"/><g id="SvgjsG1280" featureKey="8L6ael-0" transform="matrix(0.7111185549072587,0,0,0.7111185549072587,-0.5546722829385213,-3.550851988691415)" fill="#000"><path d="M9 7.859999999999999 q-0.26 -0.04 -0.43 -0.24 t-0.17 -0.46 l0 -1.46 q0 -0.34 0.24 -0.54 t0.56 -0.16 q1.72 0.28 3.06 1.22 q1.74 1.26 2.46 3.34 q0.12 0.34 -0.08 0.64 t-0.58 0.3 l-1.6 0 q-0.22 0 -0.4 -0.11 t-0.26 -0.31 q-0.44 -1.04 -1.34 -1.66 q-0.7 -0.44 -1.46 -0.56 z M14.06 14.5 q0.38 0 0.58 0.3 t0.08 0.64 q-0.72 2.08 -2.46 3.34 q-1.34 0.94 -3.06 1.22 l-0.1 0 q-0.28 0 -0.46 -0.18 q-0.24 -0.18 -0.24 -0.52 l0 -1.46 q0 -0.26 0.16 -0.46 t0.42 -0.24 q0.84 -0.12 1.48 -0.56 q0.9 -0.62 1.34 -1.66 q0.08 -0.2 0.26 -0.31 t0.4 -0.11 l1.6 0 z M6.9 5.24 q0.26 0.2 0.26 0.54 l0 1.56 q0 0.22 -0.15 0.41 t-0.37 0.27 q-0.28 0.06 -0.44 0.14 q-0.8 0.36 -1.36 0.98 q-1.14 1.28 -1.14 3.35 t1.14 3.37 q0.7 0.8 1.8 1.12 q0.22 0.06 0.37 0.25 t0.15 0.41 l0 1.58 q0 0.34 -0.26 0.54 q-0.18 0.16 -0.46 0.16 l-0.14 0 q-2.14 -0.46 -3.62 -2.08 q-1.9 -2.14 -1.9 -5.34 t1.9 -5.34 q1.48 -1.64 3.62 -2.06 q0.32 -0.08 0.6 0.14 z M24.576 5.16 q0.24 0.2 0.24 0.54 l0 1.5 q0 0.26 -0.15 0.45 t-0.41 0.25 q-1.28 0.26 -2.18 1.22 q-1.22 1.28 -1.22 3.33 t1.22 3.35 q0.9 0.94 2.18 1.2 q0.26 0.06 0.41 0.25 t0.15 0.45 l0 1.5 q0 0.32 -0.24 0.54 q-0.22 0.16 -0.46 0.16 l-0.12 0 q-2.32 -0.38 -3.98 -2.1 q-2.08 -2.14 -2.08 -5.33 t2.08 -5.37 q1.62 -1.68 3.98 -2.08 q0.32 -0.06 0.58 0.14 z M30.855999999999998 7.1 q2.08 2.18 2.08 5.37 t-2.08 5.33 q-1.66 1.72 -3.98 2.1 l-0.12 0 q-0.24 0 -0.46 -0.16 q-0.24 -0.22 -0.24 -0.54 l0 -1.5 q0 -0.26 0.15 -0.45 t0.41 -0.25 q1.28 -0.26 2.18 -1.2 q1.22 -1.3 1.22 -3.35 t-1.22 -3.33 q-0.9 -0.96 -2.18 -1.22 q-0.26 -0.06 -0.41 -0.25 t-0.15 -0.45 l0 -1.5 q0 -0.34 0.25 -0.54 t0.57 -0.14 q2.36 0.4 3.98 2.08 z M46.032 5.52 q1.22 0.46 2.2 1.48 q2.1 2.12 2.1 5.41 t-2.1 5.43 q-0.98 1.02 -2.2 1.48 q-1.26 0.52 -2.58 0.52 l-5.66 0 q-0.28 0 -0.49 -0.21 t-0.21 -0.49 l0 -1.44 q0 -0.3 0.21 -0.51 t0.49 -0.21 l5.6 0 q1.78 0 2.89 -1.3 t1.11 -3.26 t-1.11 -3.26 t-2.89 -1.3 l-5.6 0 q-0.28 0 -0.49 -0.21 t-0.21 -0.51 l0 -1.44 q0 -0.28 0.21 -0.49 t0.49 -0.21 l5.66 0 q1.32 0 2.58 0.52 z M65.088 16.96 q0.3 0 0.5 0.21 t0.2 0.51 l0 1.46 q0 0.28 -0.2 0.49 t-0.5 0.21 l-9.88 0 q-0.28 0 -0.49 -0.21 t-0.21 -0.49 l0 -1.46 q0 -0.3 0.21 -0.51 t0.49 -0.21 l9.88 0 z M55.20799999999999 13.86 q-0.28 0 -0.49 -0.21 t-0.21 -0.49 l0 -1.5 q0 -0.28 0.21 -0.49 t0.49 -0.21 l8.98 0 q0.3 0 0.51 0.21 t0.21 0.49 l0 1.5 q0 0.28 -0.21 0.49 t-0.51 0.21 l-8.98 0 z M65.088 5 q0.3 0 0.5 0.21 t0.2 0.49 l0 1.46 q0 0.3 -0.2 0.51 t-0.5 0.21 l-9.88 0 q-0.28 0 -0.49 -0.21 t-0.21 -0.51 l0 -1.46 q0 -0.28 0.21 -0.49 t0.49 -0.21 l9.88 0 z M79.44399999999999 14.1 l3.02 4.62 q0.22 0.36 0.02 0.72 q-0.08 0.16 -0.25 0.26 t-0.35 0.1 l-1.82 0 q-0.18 0 -0.34 -0.09 t-0.24 -0.23 l-3.04 -4.82 l-3.56 0 l0 4.44 q0 0.28 -0.21 0.49 t-0.49 0.21 l-1.52 0 q-0.28 0 -0.49 -0.21 t-0.21 -0.49 l0 -6.58 q0 -0.28 0.21 -0.49 t0.49 -0.21 l6.16 0 q1.76 0 2.34 -1 q0.2 -0.32 0.2 -0.92 q0 -0.94 -0.62 -1.48 q-0.64 -0.58 -1.84 -0.58 l-6.24 0 q-0.28 0 -0.49 -0.21 t-0.21 -0.49 l0 -1.44 q0 -0.28 0.21 -0.49 t0.49 -0.21 l6.42 0 q2.34 0 3.74 1.32 q1.46 1.32 1.46 3.58 q0 1.46 -0.64 2.49 t-1.86 1.57 z M92.24 11.58 q0.28 0 0.49 0.2 t0.21 0.5 l0 1.6 q0 0.28 -0.21 0.49 t-0.49 0.21 l-5.52 0 q-0.3 0 -0.5 -0.21 t-0.2 -0.49 l0 -1.6 q0 -0.3 0.2 -0.5 t0.5 -0.2 l5.52 0 z M99.536 10.94 q0.3 0 0.5 0.21 t0.2 0.51 l0 7.48 q0 0.28 -0.2 0.49 t-0.5 0.21 l-1.52 0 q-0.28 0 -0.49 -0.21 t-0.21 -0.49 l0 -7.48 q0 -0.3 0.21 -0.51 t0.49 -0.21 l1.52 0 z M99.536 5 q0.3 0 0.5 0.21 t0.2 0.49 l0 3.7 q0 0.3 -0.2 0.51 t-0.5 0.21 l-1.52 0 q-0.28 0 -0.49 -0.21 t-0.21 -0.51 l0 -3.7 q0 -0.28 0.21 -0.49 t0.49 -0.21 l1.52 0 z M115.012 12.42 q0.86 0.54 1.31 1.32 t0.45 1.74 q0 2.26 -1.72 3.46 q-1.16 0.84 -3.14 1.06 l-0.08 0 q-0.28 0 -0.46 -0.18 q-0.24 -0.22 -0.24 -0.52 l0 -1.44 q0 -0.26 0.18 -0.46 t0.44 -0.24 q0.94 -0.1 1.46 -0.44 q0.4 -0.24 0.54 -0.62 q0.08 -0.22 0.08 -0.56 q0 -0.22 -0.08 -0.38 t-0.28 -0.3 q-0.58 -0.4 -1.5 -0.68 l-0.32 -0.1 q-1 -0.28 -1.84 -0.46 q-0.18 -0.04 -0.58 -0.14 l-0.22 -0.06 q-0.72 -0.18 -1.52 -0.5 q-1.18 -0.5 -1.94 -1.26 q-0.88 -0.88 -0.88 -2.32 q0 -1.98 1.52 -3.22 q1.04 -0.88 2.92 -1.12 q0.32 -0.04 0.55 0.18 t0.23 0.52 l0 1.44 q0 0.26 -0.16 0.46 t-0.41 0.23 t-0.51 0.11 q-0.58 0.22 -0.82 0.43 t-0.34 0.43 q-0.1 0.34 -0.1 0.64 q0 0.16 0.18 0.34 q0.28 0.28 0.82 0.5 q0.24 0.1 0.84 0.3 l2.5 0.62 l0.12 0.04 q0.94 0.26 1.36 0.4 q0.94 0.32 1.64 0.78 z M111.672 7.9 q-0.24 -0.06 -0.39 -0.25 t-0.15 -0.45 l0 -1.46 q0 -0.32 0.26 -0.54 q0.1 -0.1 0.26 -0.13 t0.3 -0.01 q1.76 0.28 2.86 1.2 q1.5 1.24 1.6 3.16 q0.02 0.28 -0.19 0.51 t-0.51 0.23 l-1.56 0 q-0.26 0 -0.46 -0.18 t-0.22 -0.44 q-0.08 -0.52 -0.34 -0.86 q-0.42 -0.5 -1.3 -0.76 q-0.06 0 -0.08 -0.02 l-0.08 0 z M109.332 17.08 q0.24 0.04 0.4 0.24 t0.16 0.44 l0 1.48 q0 0.32 -0.24 0.54 q-0.2 0.16 -0.46 0.16 l-0.1 0 q-1.86 -0.28 -3.06 -1.22 q-1.56 -1.24 -1.76 -3.46 q-0.04 -0.32 0.18 -0.55 t0.52 -0.23 l1.58 0 q0.28 0 0.48 0.19 t0.22 0.47 q0.06 1 0.98 1.54 q0.42 0.24 1.1 0.4 z M123.068 10.94 q0.3 0 0.5 0.21 t0.2 0.51 l0 7.48 q0 0.28 -0.2 0.49 t-0.5 0.21 l-1.52 0 q-0.28 0 -0.49 -0.21 t-0.21 -0.49 l0 -7.48 q0 -0.3 0.21 -0.51 t0.49 -0.21 l1.52 0 z M123.068 5 q0.3 0 0.5 0.21 t0.2 0.49 l0 3.7 q0 0.3 -0.2 0.51 t-0.5 0.21 l-1.52 0 q-0.28 0 -0.49 -0.21 t-0.21 -0.51 l0 -3.7 q0 -0.28 0.21 -0.49 t0.49 -0.21 l1.52 0 z M141.92399999999998 18.86 q0.14 0.32 -0.07 0.65 t-0.57 0.33 l-13.32 0 q-0.18 0 -0.34 -0.09 t-0.24 -0.23 q-0.22 -0.32 -0.06 -0.66 l0.62 -1.46 q0.08 -0.2 0.26 -0.32 t0.38 -0.12 l9.32 0 l-3.28 -7.84 l-2.68 6.4 q-0.08 0.2 -0.25 0.31 t-0.39 0.11 l-1.68 0 q-0.38 0 -0.6 -0.32 q-0.08 -0.14 -0.1 -0.32 t0.04 -0.34 l4.06 -9.52 q0.08 -0.2 0.25 -0.32 t0.39 -0.12 l1.92 0 q0.22 0 0.39 0.12 t0.25 0.32 z M146.15999999999997 10.12 q-0.28 0 -0.49 -0.21 t-0.21 -0.49 l0 -3.72 q0 -0.28 0.21 -0.49 t0.49 -0.21 l1.52 0 q0.3 0 0.5 0.21 t0.2 0.49 l0 3.72 q0 0.28 -0.2 0.49 t-0.5 0.21 l-1.52 0 z M157.01999999999998 5 q0.28 0 0.49 0.21 t0.21 0.49 l0 13.44 q0 0.28 -0.21 0.49 t-0.49 0.21 l-1.52 0 q-0.3 0 -0.5 -0.21 t-0.2 -0.49 l0 -5.28 l-6.42 0 l0 5.28 q0 0.28 -0.2 0.49 t-0.5 0.21 l-1.52 0 q-0.28 0 -0.49 -0.21 t-0.21 -0.49 l0 -7.48 q0 -0.28 0.21 -0.49 t0.49 -0.21 l8.64 0 l0 -5.26 q0 -0.28 0.2 -0.49 t0.5 -0.21 l1.52 0 z M165.51599999999996 16.88 q0.2 0.08 0.31 0.26 t0.11 0.38 l0 1.62 q0 0.34 -0.28 0.56 q-0.16 0.14 -0.42 0.14 q-0.12 0 -0.18 -0.02 q-1.3 -0.3 -2.2 -1.2 q-1.26 -1.22 -1.44 -3.02 q-0.04 -0.3 0.18 -0.53 t0.52 -0.23 l1.58 0 q0.26 0 0.46 0.17 t0.24 0.43 q0.12 0.66 0.62 1.1 q0.22 0.22 0.5 0.34 z M170.97599999999997 5 q0.3 0 0.51 0.21 t0.21 0.49 l0 9 q0 2.18 -1.14 3.62 q-0.92 1.16 -2.52 1.52 q-0.06 0.02 -0.16 0.02 q-0.28 0 -0.44 -0.16 q-0.26 -0.2 -0.26 -0.54 l0 -1.54 q0 -0.22 0.13 -0.4 t0.33 -0.26 q0.48 -0.18 0.76 -0.6 q0.36 -0.58 0.36 -1.72 l0 -8.94 q0 -0.28 0.21 -0.49 t0.49 -0.21 l1.52 0 z M182.37199999999996 5.16 q0.24 0.2 0.24 0.54 l0 1.5 q0 0.26 -0.15 0.45 t-0.41 0.25 q-1.28 0.26 -2.18 1.22 q-1.22 1.28 -1.22 3.33 t1.22 3.35 q0.9 0.94 2.18 1.2 q0.26 0.06 0.41 0.25 t0.15 0.45 l0 1.5 q0 0.32 -0.24 0.54 q-0.22 0.16 -0.46 0.16 l-0.12 0 q-2.32 -0.38 -3.98 -2.1 q-2.08 -2.14 -2.08 -5.33 t2.08 -5.37 q1.62 -1.68 3.98 -2.08 q0.32 -0.06 0.58 0.14 z M188.65199999999996 7.1 q2.08 2.18 2.08 5.37 t-2.08 5.33 q-1.66 1.72 -3.98 2.1 l-0.12 0 q-0.24 0 -0.46 -0.16 q-0.24 -0.22 -0.24 -0.54 l0 -1.5 q0 -0.26 0.15 -0.45 t0.41 -0.25 q1.28 -0.26 2.18 -1.2 q1.22 -1.3 1.22 -3.35 t-1.22 -3.33 q-0.9 -0.96 -2.18 -1.22 q-0.26 -0.06 -0.41 -0.25 t-0.15 -0.45 l0 -1.5 q0 -0.34 0.25 -0.54 t0.57 -0.14 q2.36 0.4 3.98 2.08 z M207.14799999999997 5 q0.28 0 0.49 0.21 t0.21 0.49 l0 13.4 q0 0.28 -0.21 0.49 t-0.49 0.21 l-1.76 0 q-0.36 0 -0.58 -0.28 l-9.78 -13.4 q-0.12 -0.16 -0.14 -0.36 t0.07 -0.38 t0.26 -0.28 t0.37 -0.1 l1.76 0 q0.16 0 0.32 0.07 t0.24 0.21 l7.02 9.54 l0 -9.12 q0 -0.28 0.2 -0.49 t0.5 -0.21 l1.52 0 z M197.10799999999998 14.7 q0.28 0 0.49 0.2 t0.21 0.5 l0 3.7 q0 0.28 -0.21 0.49 t-0.49 0.21 l-1.52 0 q-0.28 0 -0.49 -0.21 t-0.21 -0.49 l0 -3.7 q0 -0.3 0.21 -0.5 t0.49 -0.2 l1.52 0 z M223.42399999999995 16.96 q0.3 0 0.5 0.21 t0.2 0.51 l0 1.46 q0 0.28 -0.2 0.49 t-0.5 0.21 l-9.88 0 q-0.28 0 -0.49 -0.21 t-0.21 -0.49 l0 -1.46 q0 -0.3 0.21 -0.51 t0.49 -0.21 l9.88 0 z M213.54399999999995 13.86 q-0.28 0 -0.49 -0.21 t-0.21 -0.49 l0 -1.5 q0 -0.28 0.21 -0.49 t0.49 -0.21 l8.98 0 q0.3 0 0.51 0.21 t0.21 0.49 l0 1.5 q0 0.28 -0.21 0.49 t-0.51 0.21 l-8.98 0 z M223.42399999999995 5 q0.3 0 0.5 0.21 t0.2 0.49 l0 1.46 q0 0.3 -0.2 0.51 t-0.5 0.21 l-9.88 0 q-0.28 0 -0.49 -0.21 t-0.21 -0.51 l0 -1.46 q0 -0.28 0.21 -0.49 t0.49 -0.21 l9.88 0 z M238.07999999999996 12.42 q0.86 0.54 1.31 1.32 t0.45 1.74 q0 2.26 -1.72 3.46 q-1.16 0.84 -3.14 1.06 l-0.08 0 q-0.28 0 -0.46 -0.18 q-0.24 -0.22 -0.24 -0.52 l0 -1.44 q0 -0.26 0.18 -0.46 t0.44 -0.24 q0.94 -0.1 1.46 -0.44 q0.4 -0.24 0.54 -0.62 q0.08 -0.22 0.08 -0.56 q0 -0.22 -0.08 -0.38 t-0.28 -0.3 q-0.58 -0.4 -1.5 -0.68 l-0.32 -0.1 q-1 -0.28 -1.84 -0.46 q-0.18 -0.04 -0.58 -0.14 l-0.22 -0.06 q-0.72 -0.18 -1.52 -0.5 q-1.18 -0.5 -1.94 -1.26 q-0.88 -0.88 -0.88 -2.32 q0 -1.98 1.52 -3.22 q1.04 -0.88 2.92 -1.12 q0.32 -0.04 0.55 0.18 t0.23 0.52 l0 1.44 q0 0.26 -0.16 0.46 t-0.41 0.23 t-0.51 0.11 q-0.58 0.22 -0.82 0.43 t-0.34 0.43 q-0.1 0.34 -0.1 0.64 q0 0.16 0.18 0.34 q0.28 0.28 0.82 0.5 q0.24 0.1 0.84 0.3 l2.5 0.62 l0.12 0.04 q0.94 0.26 1.36 0.4 q0.94 0.32 1.64 0.78 z M234.73999999999995 7.9 q-0.24 -0.06 -0.39 -0.25 t-0.15 -0.45 l0 -1.46 q0 -0.32 0.26 -0.54 q0.1 -0.1 0.26 -0.13 t0.3 -0.01 q1.76 0.28 2.86 1.2 q1.5 1.24 1.6 3.16 q0.02 0.28 -0.19 0.51 t-0.51 0.23 l-1.56 0 q-0.26 0 -0.46 -0.18 t-0.22 -0.44 q-0.08 -0.52 -0.34 -0.86 q-0.42 -0.5 -1.3 -0.76 q-0.06 0 -0.08 -0.02 l-0.08 0 z M232.39999999999995 17.08 q0.24 0.04 0.4 0.24 t0.16 0.44 l0 1.48 q0 0.32 -0.24 0.54 q-0.2 0.16 -0.46 0.16 l-0.1 0 q-1.86 -0.28 -3.06 -1.22 q-1.56 -1.24 -1.76 -3.46 q-0.04 -0.32 0.18 -0.55 t0.52 -0.23 l1.58 0 q0.28 0 0.48 0.19 t0.22 0.47 q0.06 1 0.98 1.54 q0.42 0.24 1.1 0.4 z"/></g>
			</g>
		</svg>
	